<svg xmlns="http://www.w3.org/2000/svg" xmlns:xlink="http://www.w3.org/1999/xlink" width="0" height="0" style="position:absolute">
	
		<symbol id="icon-calendar" viewBox="0 0 20 20">
			<path d="M1 4c0-1.1.9-2 2-2h14a2 2 0 0 1 2 2v14a2 2 0 0 1-2 2H3a2 2 0 0 1-2-2V4zm2 2v12h14V6H3zm2-6h2v2H5V0zm8 0h2v2h-2V0zM5 9h2v2H5V9zm0 4h2v2H5v-2zm4-4h2v2H9V9zm0 4h2v2H9v-2zm4-4h2v2h-2V9zm0 4h2v2h-2v-2z"></path>
		</symbol>
	
		<symbol id="icon-chevron-left" viewBox="0 0 20 20">
			<path d="M12.452 4.516c.446.436.481 1.043 0 1.576L8.705 10l3.747 3.908c.481.533.446 1.141 0 1.574-.445.436-1.197.408-1.615 0-.418-.406-4.502-4.695-4.502-4.695a1.095 1.095 0 0 1 0-1.576s4.084-4.287 4.502-4.695c.418-.409 1.17-.436 1.615 0z"></path>
		</symbol>
	
		<symbol id="icon-chevron-right" viewBox="0 0 20 20">
			<path d="M9.163 4.516c.418.408 4.502 4.695 4.502 4.695a1.095 1.095 0 0 1 0 1.576s-4.084 4.289-4.502 4.695c-.418.408-1.17.436-1.615 0-.446-.434-.481-1.041 0-1.574L11.295 10 7.548 6.092c-.481-.533-.446-1.141 0-1.576.445-.436 1.197-.409 1.615 0z"></path>
		</symbol>
	
		<symbol id="icon-chevron-small-left" viewBox="0 0 20 20">
			<path d="M12.141 13.418a.695.695 0 0 1 0 .978.68.68 0 0 1-.969 0l-3.83-3.908a.697.697 0 0 1 0-.979l3.83-3.908a.68.68 0 0 1 .969 0 .695.695 0 0 1 0 .978L9 10l3.141 3.418z"></path>
		</symbol>
	
		<symbol id="icon-chevron-small-right" viewBox="0 0 20 20">
			<path d="M11 10L7.859 6.58a.695.695 0 0 1 0-.978.68.68 0 0 1 .969 0l3.83 3.908a.697.697 0 0 1 0 .979l-3.83 3.908a.68.68 0 0 1-.969 0 .695.695 0 0 1 0-.978L11 10z"></path>
		</symbol>
	
		<symbol id="icon-chevron-thin-left" viewBox="0 0 20 20">
			<path d="M13.891 17.418a.697.697 0 0 1 0 .979.68.68 0 0 1-.969 0l-7.83-7.908a.697.697 0 0 1 0-.979l7.83-7.908a.68.68 0 0 1 .969 0 .697.697 0 0 1 0 .979L6.75 10l7.141 7.418z"></path>
		</symbol>
	
		<symbol id="icon-chevron-thin-right" viewBox="0 0 20 20">
			<path d="M13.25 10L6.109 2.58a.697.697 0 0 1 0-.979.68.68 0 0 1 .969 0l7.83 7.908a.697.697 0 0 1 0 .979l-7.83 7.908a.68.68 0 0 1-.969 0 .697.697 0 0 1 0-.979L13.25 10z"></path>
		</symbol>
	
		<symbol id="icon-chevron-with-circle-left" viewBox="0 0 20 20">
			<path d="M11.302 6.776a.5.5 0 0 0-.71 0L7.785 9.641a.51.51 0 0 0 0 .717l2.807 2.864a.498.498 0 0 0 .71 0 .51.51 0 0 0 0-.717L9 10l2.302-2.506a.512.512 0 0 0 0-.718zM10 .4A9.6 9.6 0 0 0 .4 10c0 5.303 4.298 9.6 9.6 9.6s9.6-4.297 9.6-9.6A9.6 9.6 0 0 0 10 .4zm0 17.954A8.353 8.353 0 0 1 1.646 10 8.354 8.354 0 1 1 10 18.354z"></path>
		</symbol>
	
		<symbol id="icon-chevron-with-circle-right" viewBox="0 0 20 20">
			<path d="M11 10L8.698 7.494a.512.512 0 0 1 0-.718.5.5 0 0 1 .71 0l2.807 2.864a.51.51 0 0 1 0 .717l-2.807 2.864a.498.498 0 0 1-.71 0 .51.51 0 0 1 0-.717L11 10zM10 .4a9.6 9.6 0 0 1 9.6 9.6c0 5.303-4.298 9.6-9.6 9.6S.4 15.303.4 10A9.6 9.6 0 0 1 10 .4zm0 17.954a8.354 8.354 0 1 0 0-16.709 8.354 8.354 0 0 0 0 16.709z"></path>
		</symbol>
	
		<symbol id="icon-cog" viewBox="0 0 20 20">
			<path d="M3.94 6.5L2.22 3.64l1.42-1.42L6.5 3.94c.52-.3 1.1-.54 1.7-.7L9 0h2l.8 3.24c.6.16 1.18.4 1.7.7l2.86-1.72 1.42 1.42-1.72 2.86c.3.52.54 1.1.7 1.7L20 9v2l-3.24.8c-.16.6-.4 1.18-.7 1.7l1.72 2.86-1.42 1.42-2.86-1.72c-.52.3-1.1.54-1.7.7L11 20H9l-.8-3.24c-.6-.16-1.18-.4-1.7-.7l-2.86 1.72-1.42-1.42 1.72-2.86c-.3-.52-.54-1.1-.7-1.7L0 11V9l3.24-.8c.16-.6.4-1.18.7-1.7zM10 13a3 3 0 1 0 0-6 3 3 0 0 0 0 6z"></path>
		</symbol>
	
		<symbol id="icon-facebook" viewBox="0 0 20 20">
			<path d="M17 1H3c-1.1 0-2 .9-2 2v14c0 1.101.9 2 2 2h7v-7H8V9.525h2v-2.05c0-2.164 1.212-3.684 3.766-3.684l1.803.002v2.605h-1.197c-.994 0-1.372.746-1.372 1.438v1.69h2.568L15 12h-2v7h4c1.1 0 2-.899 2-2V3c0-1.1-.9-2-2-2z"></path>
		</symbol>
	
		<symbol id="icon-github" viewBox="0 0 20 20">
			<path d="M13.18 11.309c-.718 0-1.3.807-1.3 1.799 0 .994.582 1.801 1.3 1.801s1.3-.807 1.3-1.801c-.001-.992-.582-1.799-1.3-1.799zm4.526-4.683c.149-.365.155-2.439-.635-4.426 0 0-1.811.199-4.551 2.08-.575-.16-1.548-.238-2.519-.238-.973 0-1.945.078-2.52.238C4.74 2.399 2.929 2.2 2.929 2.2c-.789 1.987-.781 4.061-.634 4.426C1.367 7.634.8 8.845.8 10.497c0 7.186 5.963 7.301 7.467 7.301l1.734.002 1.732-.002c1.506 0 7.467-.115 7.467-7.301 0-1.652-.566-2.863-1.494-3.871zm-7.678 10.289h-.056c-3.771 0-6.709-.449-6.709-4.115 0-.879.31-1.693 1.047-2.369C5.537 9.304 7.615 9.9 9.972 9.9h.056c2.357 0 4.436-.596 5.664.531.735.676 1.045 1.49 1.045 2.369 0 3.666-2.937 4.115-6.709 4.115zm-3.207-5.606c-.718 0-1.3.807-1.3 1.799 0 .994.582 1.801 1.3 1.801.719 0 1.301-.807 1.301-1.801 0-.992-.582-1.799-1.301-1.799z"></path>
		</symbol>
	
		<symbol id="icon-info" viewBox="0 0 20 20">
			<path d="M12.432 0c1.34 0 2.01.912 2.01 1.957 0 1.305-1.164 2.512-2.679 2.512-1.269 0-2.009-.75-1.974-1.99C9.789 1.436 10.67 0 12.432 0zM8.309 20c-1.058 0-1.833-.652-1.093-3.524l1.214-5.092c.211-.814.246-1.141 0-1.141-.317 0-1.689.562-2.502 1.117l-.528-.88c2.572-2.186 5.531-3.467 6.801-3.467 1.057 0 1.233 1.273.705 3.23l-1.391 5.352c-.246.945-.141 1.271.106 1.271.317 0 1.357-.392 2.379-1.207l.6.814C12.098 19.02 9.365 20 8.309 20z"></path>
		</symbol>
	
		<symbol id="icon-instagram" viewBox="0 0 18 18">
			<title>instagram</title><path d="M17.946 5.29a6.606 6.606 0 0 0-.418-2.185 4.412 4.412 0 0 0-1.039-1.594A4.412 4.412 0 0 0 14.895.472a6.606 6.606 0 0 0-2.184-.418C11.75.01 11.444 0 9 0S6.25.01 5.29.054a6.606 6.606 0 0 0-2.185.418A4.412 4.412 0 0 0 1.51 1.511 4.412 4.412 0 0 0 .472 3.105a6.606 6.606 0 0 0-.418 2.184C.01 6.25 0 6.556 0 9s.01 2.75.054 3.71a6.606 6.606 0 0 0 .418 2.185 4.412 4.412 0 0 0 1.039 1.594 4.411 4.411 0 0 0 1.594 1.039 6.606 6.606 0 0 0 2.184.418C6.25 17.99 6.556 18 9 18s2.75-.01 3.71-.054a6.606 6.606 0 0 0 2.185-.418 4.602 4.602 0 0 0 2.633-2.633 6.606 6.606 0 0 0 .418-2.184C17.99 11.75 18 11.444 18 9s-.01-2.75-.054-3.71zm-1.62 7.347a4.978 4.978 0 0 1-.31 1.67 2.98 2.98 0 0 1-1.708 1.709 4.979 4.979 0 0 1-1.671.31c-.95.043-1.234.052-3.637.052s-2.688-.009-3.637-.052a4.979 4.979 0 0 1-1.67-.31 2.788 2.788 0 0 1-1.036-.673 2.788 2.788 0 0 1-.673-1.035 4.978 4.978 0 0 1-.31-1.671c-.043-.95-.052-1.234-.052-3.637s.009-2.688.052-3.637a4.979 4.979 0 0 1 .31-1.67 2.788 2.788 0 0 1 .673-1.036 2.788 2.788 0 0 1 1.035-.673 4.979 4.979 0 0 1 1.671-.31c.95-.043 1.234-.052 3.637-.052s2.688.009 3.637.052a4.979 4.979 0 0 1 1.67.31 2.788 2.788 0 0 1 1.036.673 2.788 2.788 0 0 1 .673 1.035 4.979 4.979 0 0 1 .31 1.671c.043.95.052 1.234.052 3.637s-.009 2.688-.052 3.637zM9 4.378A4.622 4.622 0 1 0 13.622 9 4.622 4.622 0 0 0 9 4.378zM9 12a3 3 0 1 1 3-3 3 3 0 0 1-3 3zm5.884-7.804a1.08 1.08 0 1 1-1.08-1.08 1.08 1.08 0 0 1 1.08 1.08z"></path>
		</symbol>
	
		<symbol id="icon-light-bulb" viewBox="0 0 20 20">
			<path d="M7 13.33a7 7 0 1 1 6 0V16H7v-2.67zM7 17h6v1.5c0 .83-.67 1.5-1.5 1.5h-3A1.5 1.5 0 0 1 7 18.5V17zm2-5.1V14h2v-2.1a5 5 0 1 0-2 0z"></path>
		</symbol>
	
		<symbol id="icon-linkedin" viewBox="0 0 20 20">
			<path d="M5 3c0 1.1-.7 2-2 2-1.2 0-2-.9-2-1.9C1 2 1.8 1 3 1s2 .9 2 2zM1 19h4V6H1v13zM14.6 6.2c-2.1 0-3.3 1.2-3.8 2h-.1l-.2-1.7H6.9c0 1.1.1 2.4.1 3.9V19h4v-7.1c0-.4 0-.7.1-1 .3-.7.8-1.6 1.9-1.6 1.4 0 2 1.2 2 2.8V19h4v-7.4c0-3.7-1.9-5.4-4.4-5.4z"></path>
		</symbol>
	
		<symbol id="icon-loader" viewBox="0 0 40 40">
			<path opacity=".2" d="M20.201 5.169c-8.254 0-14.946 6.692-14.946 14.946 0 8.255 6.692 14.946 14.946 14.946s14.946-6.691 14.946-14.946c-.001-8.254-6.692-14.946-14.946-14.946zm0 26.58c-6.425 0-11.634-5.208-11.634-11.634 0-6.425 5.209-11.634 11.634-11.634 6.425 0 11.633 5.209 11.633 11.634 0 6.426-5.208 11.634-11.633 11.634z"></path><path d="M26.013 10.047l1.654-2.866a14.855 14.855 0 0 0-7.466-2.012v3.312c2.119 0 4.1.576 5.812 1.566z"><animateTransform attributeType="xml" attributeName="transform" type="rotate" from="0 20 20" to="360 20 20" dur="0.5s" repeatCount="indefinite"></animateTransform></path>
		</symbol>
	
		<symbol id="icon-menu" viewBox="0 0 20 20">
			<path d="M16.4 9H3.6c-.552 0-.6.447-.6 1 0 .553.048 1 .6 1h12.8c.552 0 .6-.447.6-1 0-.553-.048-1-.6-1zm0 4H3.6c-.552 0-.6.447-.6 1 0 .553.048 1 .6 1h12.8c.552 0 .6-.447.6-1 0-.553-.048-1-.6-1zM3.6 7h12.8c.552 0 .6-.447.6-1 0-.553-.048-1-.6-1H3.6c-.552 0-.6.447-.6 1 0 .553.048 1 .6 1z"></path>
		</symbol>
	
		<symbol id="icon-skype" viewBox="0 0 20 20">
			<path d="M18.671 12.037a9.347 9.347 0 0 0 .203-1.938c0-4.986-3.93-9.029-8.777-9.029-.511 0-1.012.047-1.5.133A4.962 4.962 0 0 0 5.89.4C3.079.4.8 2.744.8 5.637c0 .965.256 1.871.699 2.648a9.348 9.348 0 0 0-.178 1.815c0 4.986 3.93 9.029 8.775 9.029.551 0 1.087-.051 1.607-.15a4.956 4.956 0 0 0 2.406.621c2.811 0 5.09-2.344 5.09-5.236a5.328 5.328 0 0 0-.528-2.327zm-4.072 2.379c-.406.59-1.006 1.059-1.783 1.391-.769.33-1.692.496-2.742.496-1.26 0-2.317-.227-3.143-.678a4.161 4.161 0 0 1-1.445-1.318c-.372-.555-.561-1.104-.561-1.633 0-.33.123-.617.365-.852.24-.232.549-.352.916-.352.301 0 .562.094.773.277.202.176.375.438.514.773.156.367.326.676.505.92.172.234.42.432.735.586.318.154.748.232 1.275.232.725 0 1.32-.158 1.768-.473.438-.309.65-.676.65-1.127 0-.357-.111-.637-.34-.857a2.409 2.409 0 0 0-.936-.531 18.034 18.034 0 0 0-1.611-.41c-.91-.201-1.683-.439-2.299-.707-.63-.275-1.137-.658-1.508-1.137-.375-.483-.567-1.092-.567-1.807 0-.682.2-1.297.596-1.828.393-.525.965-.935 1.703-1.217.728-.277 1.596-.418 2.576-.418.783 0 1.473.094 2.047.277.578.186 1.066.436 1.449.744.387.311.674.643.854.986.182.35.275.695.275 1.031 0 .322-.121.615-.361.871-.24.258-.543.387-.9.387-.324 0-.58-.082-.756-.242-.164-.148-.336-.383-.524-.717-.219-.428-.484-.766-.788-1.002-.295-.232-.788-.35-1.466-.35-.629 0-1.141.131-1.519.387-.368.249-.545.532-.545.866 0 .207.058.379.176.525.125.158.301.295.523.41.23.12.467.214.705.282.244.07.654.172 1.215.307.711.156 1.363.332 1.939.521a6.22 6.22 0 0 1 1.502.705c.42.283.754.645.989 1.076.237.434.357.969.357 1.59a3.49 3.49 0 0 1-.613 2.016z"></path>
		</symbol>
	
		<symbol id="icon-twitter" viewBox="0 0 20 20">
			<path d="M17.316 6.246c.008.162.011.326.011.488 0 4.99-3.797 10.742-10.74 10.742-2.133 0-4.116-.625-5.787-1.697a7.577 7.577 0 0 0 5.588-1.562 3.779 3.779 0 0 1-3.526-2.621 3.858 3.858 0 0 0 1.705-.065 3.779 3.779 0 0 1-3.028-3.703v-.047a3.766 3.766 0 0 0 1.71.473 3.775 3.775 0 0 1-1.168-5.041 10.716 10.716 0 0 0 7.781 3.945 3.813 3.813 0 0 1-.097-.861 3.773 3.773 0 0 1 3.774-3.773 3.77 3.77 0 0 1 2.756 1.191 7.602 7.602 0 0 0 2.397-.916 3.789 3.789 0 0 1-1.66 2.088 7.55 7.55 0 0 0 2.168-.594 7.623 7.623 0 0 1-1.884 1.953z"></path>
		</symbol>
	
		<symbol id="icon-v-card" viewBox="0 0 20 20">
			<path d="M19 3H1a1 1 0 0 0-1 1v12a1 1 0 0 0 1 1h18a1 1 0 0 0 1-1V4a1 1 0 0 0-1-1zm-6 4h4v1h-4V7zm-2 7.803a2.31 2.31 0 0 0-.529-.303c-1.18-.508-2.961-1.26-2.961-2.176 0-.551.359-.371.518-1.379.066-.418.385-.007.445-.961 0-.38-.174-.475-.174-.475s.088-.562.123-.996c.036-.453-.221-1.8-1.277-2.097-.186-.188-.311-.111.258-.412-1.244-.059-1.534.592-2.196 1.071-.564.42-.717 1.085-.689 1.439.037.433.125.996.125.996s-.175.094-.175.474c.061.954.38.543.445.961.158 1.008.519.828.519 1.379 0 .916-1.781 1.668-2.961 2.176a2.503 2.503 0 0 0-.471.26V5h9v9.803zM18 11h-5v-1h5v1z"></path>
		</symbol>
	
</svg>
